<?xml version="1.0" encoding="UTF-8"?>
<svg xmlns="http://www.w3.org/2000/svg" xmlns:xlink="http://www.w3.org/1999/xlink" width="50px" height="50px" viewBox="0 0 50 50" version="1.1">
<g id="surface1">
<path style=" stroke:none;fill-rule:nonzero;fill:rgb(73.72549%,74.509804%,75.294118%);fill-opacity:1;" d="M 14.453125 15.546875 L 19.371094 15.546875 L 19.371094 35.9375 L 14.453125 35.9375 Z M 14.453125 15.546875 "/>
<path style=" stroke:none;fill-rule:nonzero;fill:rgb(21.176471%,84.313725%,71.764706%);fill-opacity:1;" d="M 24.769531 15.546875 L 29.6875 15.546875 L 29.6875 35.9375 L 24.769531 35.9375 Z M 24.769531 15.546875 "/>
<path style=" stroke:none;fill-rule:nonzero;fill:rgb(94.509804%,94.901961%,94.901961%);fill-opacity:1;" d="M 24.769531 18.359375 L 29.6875 18.359375 L 29.6875 19.140625 L 24.769531 19.140625 Z M 24.769531 18.359375 "/>
<path style=" stroke:none;fill-rule:nonzero;fill:rgb(94.509804%,94.901961%,94.901961%);fill-opacity:1;" d="M 24.769531 19.921875 L 29.6875 19.921875 L 29.6875 20.703125 L 24.769531 20.703125 Z M 24.769531 19.921875 "/>
<path style=" stroke:none;fill-rule:nonzero;fill:rgb(94.509804%,94.901961%,94.901961%);fill-opacity:1;" d="M 24.769531 31.25 L 29.6875 31.25 L 29.6875 32.03125 L 24.769531 32.03125 Z M 24.769531 31.25 "/>
<path style=" stroke:none;fill-rule:nonzero;fill:rgb(94.509804%,94.901961%,94.901961%);fill-opacity:1;" d="M 22.816406 32.8125 L 27.734375 32.8125 L 27.734375 33.59375 L 22.816406 33.59375 Z M 22.816406 32.8125 "/>
<path style=" stroke:none;fill-rule:nonzero;fill:rgb(90.196078%,90.588235%,90.980392%);fill-opacity:1;" d="M 19.53125 10.625 L 24.449219 10.625 L 24.449219 35.9375 L 19.53125 35.9375 Z M 19.53125 10.625 "/>
<path style=" stroke:none;fill-rule:nonzero;fill:rgb(96.078431%,67.058824%,20.784314%);fill-opacity:1;" d="M 29.765625 13.984375 L 35.386719 13.984375 L 35.386719 35.9375 L 29.765625 35.9375 Z M 29.765625 13.984375 "/>
<path style=" stroke:none;fill-rule:nonzero;fill:rgb(100%,100%,100%);fill-opacity:1;" d="M 32.03125 13.984375 L 33.515625 13.984375 L 33.515625 35.9375 L 32.03125 35.9375 Z M 32.03125 13.984375 "/>
<path style=" stroke:none;fill-rule:nonzero;fill:rgb(21.176471%,84.313725%,71.764706%);fill-opacity:1;" d="M 16.09375 17.890625 L 17.890625 17.890625 L 17.890625 33.433594 L 16.09375 33.433594 Z M 16.09375 17.890625 "/>
<path style=" stroke:none;fill-rule:nonzero;fill:rgb(96.862745%,73.72549%,36.470588%);fill-opacity:1;" d="M 20.3125 13.359375 L 23.667969 13.359375 L 23.667969 16.71875 L 20.3125 16.71875 Z M 20.3125 13.359375 "/>
<path style=" stroke:none;fill-rule:nonzero;fill:rgb(96.862745%,73.72549%,36.470588%);fill-opacity:1;" d="M 20.3125 29.527344 L 23.667969 29.527344 L 23.667969 32.890625 L 20.3125 32.890625 Z M 20.3125 29.527344 "/>
<path style="fill-rule:nonzero;fill:rgb(90.196078%,90.588235%,90.980392%);fill-opacity:1;stroke-width:1;stroke-linecap:butt;stroke-linejoin:miter;stroke:rgb(25.490196%,25.098039%,25.882353%);stroke-opacity:1;stroke-miterlimit:10;" d="M 12.205 46.295 L 51.795 46.295 L 51.795 50.4 L 12.205 50.4 Z M 12.205 46.295 " transform="matrix(0.78125,0,0,0.78125,0,0)"/>
</g>
</svg>
